<svg width="1080" height="982" viewBox="0 0 1080 982" fill="none" xmlns="http://www.w3.org/2000/svg">
<path fill-rule="evenodd" clip-rule="evenodd" d="M540.003 23.3691L832.752 35.1996C844.25 35.6642 854.839 41.5794 861.265 51.1274L1048.79 329.744C1060.08 346.516 1058.96 368.722 1046.06 384.282L567.81 960.847C553.362 978.265 526.644 978.265 512.196 960.847L33.9487 384.282C21.042 368.722 19.9303 346.516 31.2185 329.744L218.74 51.1274C225.166 41.5794 235.756 35.6642 247.254 35.1996L540.003 23.3691ZM942.31 400.809L584.321 851.073C570.556 868.386 544.357 852.489 553.651 832.417C608.467 714.031 691.603 539.864 765.586 406.886C776.52 387.233 797.293 375.318 819.779 375.318H930.015C943.165 375.318 950.495 390.514 942.31 400.809ZM332.504 186.944L290.315 94.6547C285.24 83.5521 269.997 82.2272 263.083 92.2877L179.586 213.78C171.463 225.599 182.119 241.23 196.086 237.985L321.772 208.782C331.448 206.533 336.635 195.98 332.504 186.944Z" fill="white"/>
</svg>
