<?xml version="1.0" encoding="UTF-8"?>
<svg id="Layer_1" xmlns="http://www.w3.org/2000/svg" version="1.1" viewBox="0 0 1080 213">
  <!-- Generator: Adobe Illustrator 29.3.1, SVG Export Plug-In . SVG Version: 2.1.0 Build 151)  -->
  <defs>
    <style>
      .st0 {
        fill-rule: evenodd;
      }

      .st1 {
        fill: #fff;
      }
    </style>
  </defs>
  <path d="M286.6,121.9c-2.9-7.1-4.4-14.8-4.4-23.1s1.5-15.8,4.4-22.8c3-7,7.2-13.1,12.4-18.4,5.4-5.3,11.6-9.3,18.7-12.3,7.1-2.9,14.7-4.4,22.9-4.4s16.1,1.5,23.1,4.4c7.1,2.8,13.3,6.9,18.5,12.1,5.3,5.2,9.3,11.3,12.3,18.4,2.9,7,4.4,14.6,4.4,22.9s-1.5,15.8-4.5,22.8c-2.9,7-7.1,13.1-12.4,18.4-5.3,5.3-11.4,9.3-18.5,12.3-7,2.9-14.6,4.4-22.8,4.4s-16.1-1.4-23.2-4.2c-7.1-2.9-13.3-7-18.5-12.1-5.3-5.3-9.3-11.4-12.3-18.4ZM378,98.8c0-7.8-1.6-14.6-4.8-20.6-3.2-6-7.6-10.8-13.3-14.2-5.5-3.4-12-5.1-19.3-5.1s-13.6,1.7-19.3,5.1c-5.6,3.4-10.1,8.1-13.3,14.2-3.2,5.9-4.8,12.8-4.8,20.6s1.6,14.5,4.8,20.6c3.2,6,7.6,10.8,13.3,14.2,5.6,3.4,12.1,5.1,19.3,5.1s13.6-1.7,19.3-5.1c5.6-3.4,10.1-8.1,13.3-14.2,3.2-6,4.8-12.9,4.8-20.6Z"/>
  <path d="M418,80.3h17.7l.3,11.2c2-4.3,5.1-7.6,9-9.9,4.1-2.4,8.8-3.6,14.2-3.6,8.6,0,15.1,2.7,19.7,8.2,4.6,5.4,6.9,13.2,6.9,23.4v44.8h-18.4v-41.4c0-12.4-4.8-18.5-14.3-18.5s-9.3,1.8-12.3,5.3c-2.9,3.4-4.4,8.3-4.4,14.6v40.1h-18.4v-74Z"/>
  <path d="M546.5,156.6c-8.8,0-16.3-1.6-22.8-4.7-6.3-3.2-11.2-7.7-14.7-13.6-3.4-5.8-5.1-12.8-5.1-20.9s1.6-14.6,4.8-20.6c3.2-5.9,7.6-10.6,13.3-13.9,5.6-3.4,12.2-5.1,19.6-5.1s13.1,1.5,18.2,4.5c5.3,3,9.3,7.3,12.1,12.8,2.8,5.4,4.2,11.9,4.2,19.3s-.1,4.9-.4,7.4h-53.7c.9,6.7,3.6,11.7,8,15,4.6,3.2,10.7,4.8,18.4,4.8s8.3-.5,12.6-1.5c4.3-1,8.3-2.3,12-4.1l1.9,14c-3.6,1.9-7.9,3.5-13,4.5-5.1,1.2-10.2,1.8-15.3,1.8ZM540.8,91.6c-5.2,0-9.4,1.7-12.7,5-3.3,3.2-5.4,7.8-6.1,13.7h36.8c0-1,0-1.9-.3-2.9-.7-5.1-2.6-9-5.7-11.7-3-2.7-7-4.1-12-4.1Z"/>
  <path d="M660.8,147.7c-7.4,5.9-17.5,8.9-30.4,8.9s-9.2-.4-13.9-1.2c-4.7-.8-9-1.8-13.1-3.2-4-1.4-7.3-3-10.1-4.8l2-16.9c4.7,2.8,10.1,5.2,16.2,7,6.2,1.8,12.2,2.6,17.8,2.6s12.5-1.4,16.5-4.2c4-2.8,6-6.7,6-11.5s-.7-5.4-2-7.3c-1.3-2-3.6-3.9-7-5.5-3.3-1.8-8-3.6-14-5.4-8.2-2.5-14.7-5.3-19.6-8.2-4.9-3-8.4-6.5-10.7-10.5-2.1-4.1-3.2-9-3.2-14.6s1.6-12.1,4.8-16.8c3.2-4.8,7.7-8.5,13.6-11.1,5.8-2.6,12.7-3.9,20.6-3.9s11.5.8,17.4,2.3c5.8,1.5,10.9,3.5,15.3,6l-2.9,16.3c-4.2-2.5-8.9-4.5-14.2-6-5.3-1.5-10.3-2.2-15.2-2.2s-11.2,1.3-14.7,3.8-5.3,6.1-5.3,10.7.6,5.1,1.8,7c1.3,1.8,3.4,3.6,6.3,5.1,3,1.6,7.2,3.2,12.6,5,8.9,2.7,16,5.7,21.3,8.9,5.4,3.1,9.2,6.7,11.5,10.8,2.4,4.1,3.6,8.9,3.6,14.4,0,10.3-3.7,18.5-11.1,24.5Z"/>
  <path d="M693.9,80.3h18.4v74h-18.4v-74ZM694.9,45.1c2.1-2.1,4.8-3.2,8-3.2s5.8,1.1,7.9,3.2c2.1,2.1,3.2,4.8,3.2,7.9s-1.1,5.9-3.2,8c-2,2-4.7,3.1-7.9,3.1s-5.9-1-8-3.1c-2.1-2.1-3.2-4.8-3.2-8s1.1-5.7,3.2-7.9Z"/>
  <path d="M735.4,80.3h17.7v10.9c2.2-4.2,5.2-7.4,9.2-9.8,4-2.3,8.6-3.5,13.9-3.5,11.3,0,19,4.9,23.1,14.7,2-4.6,5.3-8.2,9.6-10.8,4.4-2.6,9.3-3.9,14.7-3.9,8.7,0,15.3,2.7,19.8,8.2,4.7,5.4,7,13.1,7,23.4v44.8h-18.4v-41.4c0-12.4-4.7-18.5-14.2-18.5s-9,1.8-11.8,5.3c-2.7,3.4-4.1,8.3-4.1,14.6v40.1h-18.2v-41.6c0-12.3-4.7-18.4-14-18.4s-9,1.8-11.8,5.3c-2.8,3.4-4.2,8.3-4.2,14.6v40.1h-18.2v-74Z"/>
  <path d="M873.1,80.3h17.2l.3,12.1c2.6-4.7,6.2-8.2,10.7-10.7,4.5-2.5,9.6-3.8,15.5-3.8s12.6,1.7,17.8,5.1c5.2,3.3,9.2,7.9,12.1,13.9,2.9,5.8,4.4,12.6,4.4,20.3s-1.6,14.1-4.8,20c-3.1,5.9-7.3,10.7-12.7,14.2-5.3,3.5-11.3,5.3-17.9,5.3-10.7,0-18.7-4.3-24.1-13v46.4h-18.4v-109.8ZM911.5,140.2c6.2,0,11.3-2.1,15.2-6.4,3.9-4.3,5.8-9.8,5.8-16.5s-1.9-12.3-5.8-16.5c-3.9-4.3-9-6.4-15.2-6.4s-11.3,2.1-15.3,6.4c-3.9,4.2-5.8,9.7-5.8,16.5s1.9,12.2,5.8,16.5c4,4.3,9.1,6.4,15.3,6.4Z"/>
  <path d="M969.8,36h18.4v118.2h-18.4V36Z"/>
  <path d="M1049.4,156.6c-8.8,0-16.4-1.6-22.8-4.7-6.3-3.2-11.2-7.7-14.7-13.6-3.4-5.8-5.1-12.8-5.1-20.9s1.6-14.6,4.8-20.6c3.2-5.9,7.6-10.6,13.3-13.9,5.6-3.4,12.2-5.1,19.6-5.1s13.1,1.5,18.2,4.5c5.3,3,9.3,7.3,12.1,12.8,2.8,5.4,4.2,11.9,4.2,19.3s-.1,4.9-.4,7.4h-53.7c.9,6.7,3.5,11.7,8,15,4.6,3.2,10.7,4.8,18.4,4.8s8.3-.5,12.5-1.5c4.3-1,8.3-2.3,12-4.1l1.9,14c-3.6,1.9-7.9,3.5-13,4.5-5.1,1.2-10.2,1.8-15.3,1.8ZM1043.7,91.6c-5.2,0-9.4,1.7-12.7,5-3.3,3.2-5.4,7.8-6.1,13.7h36.8c0-1,0-1.9-.3-2.9-.7-5.1-2.6-9-5.7-11.7-3-2.7-7-4.1-12-4.1Z"/>
  <path class="st1" d="M113.4,17.9l54.6,2.2c2.1,0,4.1,1.2,5.3,3l35,52c2.1,3.1,1.9,7.3-.5,10.2l-89.2,107.5c-2.7,3.2-7.7,3.2-10.4,0L19,85.2c-2.4-2.9-2.6-7-.5-10.2L53.5,23c1.2-1.8,3.2-2.9,5.3-3l54.6-2.2Z"/>
  <path class="st0" d="M221.6,66l-35-52c-4.1-6-10.7-9.7-18-10l-55.9-2.2-54.6,2.2c-7.3.3-13.9,4-18,10L5.2,66c-6.1,9-5.5,21,1.5,29.4l89.2,107.5c9.1,11,26,11,35.1,0l89.2-107.5c7-8.4,7.6-20.3,1.5-29.4ZM207.8,85.2l-89.2,107.5c-2.7,3.2-7.7,3.2-10.4,0L19,85.2c-2.4-2.9-2.6-7-.5-10.2L53.5,23c1.2-1.8,3.2-2.9,5.3-3l54.6-2.2,54.6,2.2c2.1,0,4.1,1.2,5.3,3l35,52c2.1,3.1,1.9,7.3-.5,10.2Z"/>
  <path d="M74.7,49.2l-7.9-17.2c-.9-2.1-3.8-2.3-5.1-.4l-15.6,22.7c-1.5,2.2.5,5.1,3.1,4.5l23.4-5.4c1.8-.4,2.8-2.4,2-4.1Z"/>
  <path d="M188.4,89.1l-66.8,84c-2.6,3.2-7.5.3-5.7-3.5,10.2-22.1,25.7-54.6,39.5-79.4,2-3.7,5.9-5.9,10.1-5.9h20.6c2.5,0,3.8,2.8,2.3,4.8Z"/>
</svg>