<svg width="119" height="24" viewBox="0 0 119 24" fill="none" xmlns="http://www.w3.org/2000/svg">
<path d="M3.89923 15.8266C3.89923 17.2056 4.20202 18.2657 4.59737 18.9062C5.11568 19.7452 5.88918 20.1012 6.67722 20.1012C7.69401 20.1012 8.62353 19.8485 10.4165 17.3671C11.8524 15.378 13.5448 12.5869 14.6833 10.8361L16.6111 7.87031C17.9505 5.81109 19.5001 3.52159 21.2785 1.97056C22.729 0.704056 24.2945 0 25.8706 0C28.515 0 31.0352 1.53383 32.963 4.41092C35.0733 7.56195 36.098 11.5309 36.098 15.6268C36.098 18.0619 35.618 19.8511 34.8022 21.2645C34.0142 22.6316 32.4777 23.9974 29.8928 23.9974V20.0999C32.1062 20.0999 32.6576 18.0645 32.6576 15.7353C32.6576 12.4162 31.8841 8.73185 30.181 6.09959C28.9725 4.23226 27.4057 3.09148 25.6815 3.09148C23.8172 3.09148 22.3178 4.49827 20.632 7.00745C19.7355 8.34012 18.8152 9.96526 17.7826 11.7982L16.6455 13.8151C14.3607 17.87 13.7815 18.7924 12.6404 20.317C10.6386 22.9849 8.92897 23.9974 6.67854 23.9974C4.00898 23.9974 2.3205 22.8407 1.27462 21.0964C0.419144 19.6764 0 17.8117 0 15.6864L3.89923 15.8266Z" fill="#0081FB"/>
<path d="M3.07422 4.68765C4.86186 1.92967 7.44152 0.00146484 10.4007 0.00146484C12.1143 0.00146484 13.8173 0.509656 15.5957 1.96276C17.542 3.55217 19.6152 6.16855 22.2028 10.4829L23.131 12.0312C25.3708 15.7659 26.6441 17.6862 27.3899 18.5927C28.3485 19.756 29.0202 20.1027 29.8928 20.1027C32.1062 20.1027 32.6576 18.0673 32.6576 15.7381L36.0967 15.6296C36.0967 18.0647 35.6167 19.8539 34.8009 21.2673C34.0129 22.6344 32.4765 24.0001 29.8915 24.0001C28.285 24.0001 26.861 23.6508 25.2875 22.1646C24.0777 21.0238 22.6629 18.9977 21.5748 17.1753L18.338 11.7626C16.7143 9.04563 15.2241 7.02082 14.3607 6.1037C13.4325 5.11776 12.2412 3.9267 10.3372 3.9267C8.7968 3.9267 7.48912 5.00792 6.39432 6.6635L3.07422 4.68765Z" fill="url(#paint0_linear_1202_25)"/>
<path d="M10.3371 3.9239C8.79674 3.9239 7.48907 5.00513 6.39427 6.66071C4.84594 8.99917 3.89923 12.4811 3.89923 15.8266C3.89923 17.2056 4.20202 18.2657 4.59737 18.9062L1.2733 21.0978C0.419144 19.6764 0 17.8117 0 15.6864C0 11.8233 1.0591 7.79619 3.07417 4.68619C4.86181 1.92821 7.44147 0 10.4006 0L10.3371 3.9239Z" fill="url(#paint1_linear_1202_25)"/>
<path d="M43.6756 0.759766H48.1857L55.8546 14.645L63.5248 0.759766H67.9371V23.5766H64.2573V6.08913L57.5312 18.1983H54.0789L47.3541 6.08913V23.5753H43.6743V0.759766H43.6756ZM79.4655 9.26663C76.8264 9.26663 75.2384 11.2544 74.8576 13.7159H83.813C83.6279 11.1803 82.1668 9.26663 79.4655 9.26663ZM71.2096 15.1174C71.2096 9.93892 74.5535 6.16986 79.529 6.16986C84.4239 6.16986 87.346 9.89128 87.346 15.394V16.4051H74.8576C75.3006 19.0823 77.0763 20.8861 79.9376 20.8861C82.2211 20.8861 83.6477 20.1887 85.0017 18.9129L86.9559 21.3083C85.1141 23.0036 82.7724 23.9803 79.8067 23.9803C74.42 23.9829 71.2096 20.0511 71.2096 15.1174ZM91.8072 9.59351H88.421V6.57879H91.8072V1.59219H95.3573V6.57879H100.502V9.59351H95.3573V17.2362C95.3573 19.846 96.1903 20.7723 98.2398 20.7723C99.1746 20.7723 99.7114 20.6916 100.503 20.5606V23.5435C99.517 23.8228 98.5756 23.9512 97.5562 23.9512C93.7244 23.9512 91.8085 21.8549 91.8085 17.661L91.8072 9.59351ZM115.45 12.5262C114.737 10.725 113.147 9.39765 110.809 9.39765C107.772 9.39765 105.827 11.5548 105.827 15.0684C105.827 18.4948 107.617 20.7565 110.663 20.7565C113.058 20.7565 114.768 19.3616 115.45 17.6266V12.5262ZM119 23.5753H115.516V21.1958C114.541 22.5973 112.77 23.9829 109.899 23.9829C105.282 23.9829 102.197 20.1146 102.197 15.0684C102.197 9.97465 105.357 6.16986 110.095 6.16986C112.438 6.16986 114.274 7.10683 115.516 8.76241V6.57879H119V23.5753Z" fill="#192830"/>
<defs>
<linearGradient id="paint0_linear_1202_25" x1="7.82496" y1="11.3776" x2="32.6794" y2="12.6318" gradientUnits="userSpaceOnUse">
<stop stop-color="#0064E1"/>
<stop offset="0.4" stop-color="#0064E1"/>
<stop offset="0.83" stop-color="#0073EE"/>
<stop offset="1" stop-color="#0082FB"/>
</linearGradient>
<linearGradient id="paint1_linear_1202_25" x1="5.20003" y1="17.4646" x2="5.20003" y2="8.293" gradientUnits="userSpaceOnUse">
<stop stop-color="#0082FB"/>
<stop offset="1" stop-color="#0064E0"/>
</linearGradient>
</defs>
</svg>
