<svg width="24" height="24" viewBox="0 0 24 24" fill="none" xmlns="http://www.w3.org/2000/svg">
<path d="M12.0006 2.6721L17.668 2.90461C17.8906 2.91374 18.0956 3.03 18.22 3.21765L21.8503 8.69342C22.0688 9.02304 22.0473 9.45946 21.7974 9.76527L12.5389 21.0968C12.2592 21.4391 11.742 21.4391 11.4623 21.0968L2.20379 9.76527C1.95393 9.45946 1.93241 9.02304 2.15094 8.69342L5.78121 3.21765C5.90562 3.03 6.11062 2.91374 6.33322 2.90461L12.0006 2.6721Z" fill="white"/>
<path fill-rule="evenodd" clip-rule="evenodd" d="M12.0007 1L17.7365 1.23532C18.5013 1.26669 19.1957 1.66579 19.6125 2.29448L23.2428 7.77024L21.8503 8.69341L18.22 3.21765C18.0956 3.03 17.8906 2.91374 17.668 2.90461L12.0007 2.6721L6.33326 2.90461C6.11066 2.91374 5.90566 3.03 5.78125 3.21765L4.38878 2.29447C4.80558 1.66579 5.50002 1.26669 6.26478 1.23532L12.0007 1ZM21.7975 9.76527L12.539 21.0968C12.2593 21.4391 11.742 21.4391 11.4623 21.0968L2.20383 9.76527C1.95397 9.45946 1.93245 9.02304 2.15098 8.69341L5.78125 3.21765L4.38878 2.29447L0.758504 7.77024C0.136131 8.709 0.19591 9.94828 0.910073 10.8223L10.1686 22.1538C11.1168 23.3143 12.8845 23.3143 13.8327 22.1538L23.0912 10.8223L21.7975 9.76527ZM21.7975 9.76527L23.0912 10.8223C23.8054 9.94828 23.8652 8.709 23.2428 7.77024L21.8503 8.69341C22.0689 9.02304 22.0473 9.45946 21.7975 9.76527Z" fill="black"/>
<path fill-rule="evenodd" clip-rule="evenodd" d="M7.16692 4.16577L7.98366 5.97956C8.06363 6.15715 7.96322 6.36457 7.7759 6.40875L5.34272 6.9827C5.07233 7.04648 4.86604 6.73928 5.02329 6.50699L6.63973 4.11925C6.77358 3.92153 7.06867 3.94756 7.16692 4.16577Z" fill="#FF0000"/>
<path d="M7.98366 5.97956L7.16692 4.16577C7.06867 3.94756 6.77358 3.92153 6.63973 4.11925L5.02329 6.50699C4.86604 6.73928 5.07233 7.04648 5.34272 6.9827L7.7759 6.40875C7.96322 6.36457 8.06363 6.15715 7.98366 5.97956Z" fill="black"/>
<path fill-rule="evenodd" clip-rule="evenodd" d="M12.8586 19.032L19.789 10.1827C19.9474 9.98041 19.8055 9.68175 19.5509 9.68175H17.4168C16.9815 9.68175 16.5794 9.91592 16.3677 10.3022C14.9355 12.9156 13.326 16.3386 12.2648 18.6653C12.0849 19.0598 12.5921 19.3722 12.8586 19.032Z" fill="#FF0000"/>
<path d="M19.789 10.1827L12.8586 19.032C12.5921 19.3722 12.0849 19.0598 12.2648 18.6653C13.326 16.3386 14.9355 12.9156 16.3677 10.3022C16.5794 9.91592 16.9815 9.68175 17.4168 9.68175H19.5509C19.8055 9.68175 19.9474 9.98041 19.789 10.1827Z" fill="black"/>
</svg>
