<svg width="30" height="30" viewBox="0 0 30 30" fill="none" xmlns="http://www.w3.org/2000/svg">
<path fill-rule="evenodd" clip-rule="evenodd" d="M3.82495 7.5C3.82495 6.85106 4.35102 6.325 4.99995 6.325H25C25.6489 6.325 26.175 6.85106 26.175 7.5C26.175 8.14893 25.6489 8.675 25 8.675H4.99995C4.35102 8.675 3.82495 8.14893 3.82495 7.5ZM3.82495 15C3.82495 14.3511 4.35102 13.825 4.99995 13.825H25C25.6489 13.825 26.175 14.3511 26.175 15C26.175 15.6489 25.6489 16.175 25 16.175H4.99995C4.35102 16.175 3.82495 15.6489 3.82495 15ZM3.82495 22.5C3.82495 21.8511 4.35102 21.325 4.99995 21.325H25C25.6489 21.325 26.175 21.8511 26.175 22.5C26.175 23.1489 25.6489 23.675 25 23.675H4.99995C4.35102 23.675 3.82495 23.1489 3.82495 22.5Z" fill="#9290F6"/>
</svg>
