<svg width="30" height="30" viewBox="0 0 30 30" fill="none" xmlns="http://www.w3.org/2000/svg">
<path fill-rule="evenodd" clip-rule="evenodd" d="M6.6691 6.66915C7.12797 6.21028 7.87194 6.21028 8.3308 6.66915L15 13.3383L21.6691 6.66915C22.128 6.21028 22.872 6.21028 23.3308 6.66915C23.7897 7.12801 23.7897 7.87198 23.3308 8.33085L16.6617 15L23.3308 21.6691C23.7896 22.128 23.7896 22.8719 23.3308 23.3308C22.8719 23.7897 22.1279 23.7897 21.6691 23.3308L15 16.6617L8.3308 23.3309C7.87194 23.7898 7.12797 23.7898 6.6691 23.3309C6.21023 22.872 6.21023 22.1281 6.6691 21.6692L13.3383 15L6.6691 8.33085C6.21023 7.87198 6.21023 7.12801 6.6691 6.66915Z" fill="#9290F6"/>
</svg>
