<svg width="128" height="128" viewBox="0 0 128 128" fill="none" xmlns="http://www.w3.org/2000/svg">
<rect width="128" height="128" rx="21" fill="black"/>
<path fill-rule="evenodd" clip-rule="evenodd" d="M64.0002 27.9341L87.2364 28.8729C88.1491 28.9098 88.9896 29.3792 89.4996 30.1369L104.384 52.2473C105.28 53.5782 105.191 55.3405 104.167 56.5753L66.2074 102.33C65.0606 103.712 62.9399 103.712 61.7931 102.33L23.8335 56.5753C22.8091 55.3405 22.7208 53.5782 23.6168 52.2473L38.5009 30.1369C39.0109 29.3792 39.8514 28.9098 40.7641 28.8729L64.0002 27.9341ZM95.9323 57.8868L67.5178 93.6188C66.4253 94.9927 64.3458 93.7311 65.0835 92.1382C69.4344 82.7434 76.0331 68.9219 81.9053 58.3691C82.7732 56.8095 84.422 55.8639 86.2068 55.8639H94.9564C96.0002 55.8639 96.582 57.0699 95.9323 57.8868ZM47.5306 40.915L44.1819 33.5911C43.7791 32.7101 42.5692 32.6049 42.0205 33.4033L35.3931 43.0447C34.7484 43.9826 35.5941 45.223 36.7028 44.9655L46.6787 42.648C47.4467 42.4696 47.8584 41.632 47.5306 40.915Z" fill="white"/>
</svg>
